<svg width="182" height="242" viewBox="0 0 182 242" fill="none" xmlns="http://www.w3.org/2000/svg">
<g clip-path="url(#clip0_5_3)">
<path d="M90.7926 68.3209C105.23 68.3209 116.933 56.6021 116.933 42.1462C116.933 27.6902 105.23 15.9714 90.7926 15.9714C76.3555 15.9714 64.652 27.6902 64.652 42.1462C64.652 56.6021 76.3555 68.3209 90.7926 68.3209Z" fill="#FFB8B8"/>
<path d="M71.2828 55.2336C71.2828 55.2336 76.2073 92.4084 68.6298 96.5817C61.0524 100.755 113.712 101.134 113.712 101.134C113.712 101.134 101.968 68.89 107.271 59.0266L71.2828 55.2336Z" fill="#FFB8B8"/>
<path d="M152.165 101.321L147.785 121.29L138.525 163.537L138.246 165.851L135.05 192.635L132.923 210.428L131.498 222.38C122.831 226.84 116.549 229.919 116.549 229.919C116.549 229.919 116.009 227.207 115.138 223.737C109.056 225.562 97.8004 228.592 88.264 229.196C91.7365 233.073 93.3324 236.713 91.1682 239.402C84.6351 247.504 57.6582 230.531 48.2265 224.203C48.0069 225.719 47.9238 227.251 47.978 228.781L40.7579 223.221L41.4728 210.428L42.6778 188.783L44.1913 161.64C43.7138 160.477 43.3137 159.284 42.9934 158.069C40.7817 150.195 38.0981 134.474 36.04 121.29C34.3841 110.68 33.1386 101.717 32.8761 99.8055L32.8231 99.428L72.7894 81.7451C75.6294 88.3413 88.8923 90.3237 88.8923 90.3237C95.8496 89.7083 102.564 87.461 108.493 83.764L152.165 101.321Z" fill="#2E86C1"/>
<path d="M119.586 222.334C119.586 222.334 117.894 222.914 115.143 223.732C109.061 225.558 97.806 228.588 88.2696 229.192C80.0583 229.719 73.1189 228.452 71.8497 223.088C71.5894 222.045 71.6306 220.949 71.9686 219.929C72.3065 218.909 72.9273 218.005 73.7584 217.325C78.7779 212.665 91.8873 210.996 102.285 210.423C105.217 210.262 107.937 210.188 110.198 210.16C114.037 210.109 116.553 210.188 116.553 210.188L116.614 210.423L119.586 222.334Z" fill="#FFB8B8"/>
<path d="M69.0474 17.386L64.1605 15.4287C64.1605 15.4287 74.3797 4.16296 88.5949 5.14302L84.596 0.734881C84.596 0.734881 94.3697 -3.17974 103.258 7.10311C107.93 12.5109 113.335 18.8665 116.704 26.0261H121.939L119.754 30.8425L127.4 35.6588L119.551 34.7934C120.019 37.4308 120.091 40.1233 119.765 42.782C119.428 45.4419 118.072 47.8666 115.984 49.5445C115.984 49.5445 109.923 36.9814 109.923 35.0227V39.916C109.923 39.916 105.036 35.5078 105.036 32.5691L102.376 36L101.042 30.6118L84.603 36L87.2685 31.5918L77.0493 33.0612L81.0481 27.673C81.0481 27.673 69.4956 34.0412 69.0516 39.428C68.555 43.1633 67.2493 46.7448 65.2259 49.922C65.2259 49.922 56.16 24.7329 69.0474 17.386Z" fill="#2F2E41"/>
<path d="M180.577 193.121C177.915 196.011 171.317 200.365 163.32 205.078C160.344 206.83 157.176 208.633 153.945 210.428C146.235 214.711 138.167 218.956 131.5 222.38C122.834 226.84 116.552 229.919 116.552 229.919C116.552 229.919 116.012 227.207 115.14 223.736C113.975 219.092 112.218 213.087 110.393 210.428C110.329 210.336 110.265 210.251 110.201 210.165C109.667 209.466 109.131 209.055 108.6 209.055L135.057 192.636L146.489 185.538L138.251 165.851L127.919 141.155L134.155 121.29L140.422 101.321H152.168C152.168 101.321 156.056 109.821 161.03 121.674C161.772 123.447 162.54 125.294 163.322 127.202C173.551 152.117 186.305 186.914 180.577 193.121Z" fill="#2E86C1"/>
<path d="M91.1724 239.401C84.6393 247.503 57.6624 230.531 48.2307 224.202C46.1768 222.825 44.9536 221.953 44.9536 221.953L53.5852 210.427L56.3191 206.778C56.3191 206.778 58.7654 208.077 62.3803 210.192C62.5115 210.27 62.6428 210.349 62.7782 210.427C65.8961 212.26 69.8097 214.656 73.7583 217.329C79.0279 220.723 83.8961 224.704 88.2695 229.196C91.742 233.072 93.338 236.714 91.1724 239.401Z" fill="#FFB8B8"/>
<path d="M62.379 210.195C61.4144 210.191 60.4512 210.27 59.4999 210.43C51.3276 211.836 48.9176 219.237 48.2307 224.205C48.0111 225.72 47.9279 227.252 47.9822 228.782L40.7621 223.222L38.1316 221.196C31.817 218.835 26.0707 215.167 21.2677 210.431C17.0244 206.342 13.2182 201.822 9.91063 196.944C6.6162 192.135 3.67937 187.091 1.12398 181.851C0.410754 180.389 0.0273183 178.788 0.000776894 177.161C-0.0257646 175.534 0.305258 173.921 0.970415 172.437L9.90637 152.486L22.9739 123.328C23.067 122.634 23.1726 121.955 23.2908 121.292C25.8823 106.414 32.8244 99.8082 32.8244 99.8082H38.1303L41.6781 121.292L46.0888 147.98L43.0004 158.067L35.8627 181.364L42.6848 188.782L62.379 210.195Z" fill="#2E86C1"/>
<path d="M68.3814 148.002L72.9151 153.299C74.6003 152.977 76.3582 152.6 78.1705 152.18L76.8678 148.007L80.0527 151.727C99.247 147.001 123.039 137.81 123.039 137.81C123.039 137.81 97.348 139.696 78.1747 135.5C74.0648 134.562 69.7574 135.078 65.9843 136.96C62.2113 138.842 59.2052 141.974 57.4767 145.823C55.4521 150.454 55.7705 154.466 62.9486 154.466C65.3742 154.425 67.7931 154.197 70.184 153.785L68.3814 148.002Z" fill="white"/>
<path d="M171.747 235.058V237.218C171.748 237.811 171.638 238.399 171.423 238.952C171.328 239.198 171.212 239.436 171.078 239.663C170.655 240.376 170.053 240.965 169.334 241.375C168.614 241.784 167.8 241.999 166.972 241.998H8.23365C7.40581 241.999 6.59199 241.784 5.87211 241.375C5.15223 240.965 4.55094 240.376 4.12722 239.663C3.99313 239.436 3.87778 239.198 3.78233 238.952C3.5673 238.399 3.45744 237.811 3.45841 237.218V235.058C3.45823 234.43 3.58161 233.809 3.82145 233.229C4.06129 232.649 4.41287 232.122 4.8562 231.678C5.29952 231.234 5.8259 230.882 6.40516 230.642C6.98443 230.402 7.60525 230.278 8.2322 230.278H17.3819V229.266C17.3817 229.24 17.3867 229.214 17.3966 229.189C17.4066 229.165 17.4214 229.143 17.4399 229.124C17.4585 229.106 17.4806 229.091 17.5049 229.081C17.5292 229.071 17.5552 229.066 17.5815 229.066H22.3553C22.3815 229.066 22.4077 229.071 22.432 229.081C22.4563 229.091 22.4783 229.106 22.4969 229.124C22.5155 229.143 22.5301 229.165 22.5401 229.189C22.5501 229.214 22.5551 229.24 22.5549 229.266V230.274H25.5374V229.266C25.5372 229.24 25.5422 229.214 25.5521 229.189C25.5621 229.165 25.5769 229.143 25.5954 229.124C25.614 229.106 25.6361 229.091 25.6604 229.081C25.6847 229.071 25.7107 229.066 25.737 229.066H30.5108C30.5371 229.066 30.5631 229.071 30.5874 229.081C30.6117 229.091 30.6338 229.106 30.6524 229.124C30.671 229.143 30.6857 229.165 30.6956 229.189C30.7056 229.214 30.7106 229.24 30.7105 229.266V230.274H33.6985V229.266C33.6983 229.24 33.7033 229.214 33.7133 229.189C33.7233 229.165 33.7379 229.143 33.7565 229.124C33.7751 229.106 33.7972 229.091 33.8215 229.081C33.8458 229.071 33.8719 229.066 33.8981 229.066H38.6719C38.6982 229.066 38.7242 229.071 38.7485 229.081C38.7728 229.091 38.7949 229.106 38.8135 229.124C38.832 229.143 38.8468 229.165 38.8568 229.189C38.8667 229.214 38.8718 229.24 38.8716 229.266V230.274H41.854V229.266C41.8538 229.24 41.8588 229.214 41.8688 229.189C41.8788 229.165 41.8934 229.143 41.912 229.124C41.9306 229.106 41.9527 229.091 41.977 229.081C42.0013 229.071 42.0274 229.066 42.0536 229.066H46.8233C46.8495 229.066 46.8756 229.071 46.8999 229.081C46.9242 229.091 46.9462 229.106 46.9648 229.124C46.9834 229.143 46.9981 229.165 47.0081 229.189C47.0181 229.214 47.0231 229.24 47.0229 229.266V230.274H50.0053V229.266C50.0051 229.24 50.0102 229.214 50.0201 229.189C50.0301 229.165 50.0448 229.143 50.0633 229.124C50.0819 229.106 50.104 229.091 50.1283 229.081C50.1526 229.071 50.1787 229.066 50.205 229.066H54.9788C55.005 229.066 55.0311 229.071 55.0554 229.081C55.0797 229.091 55.1017 229.106 55.1203 229.124C55.1389 229.143 55.1536 229.165 55.1636 229.189C55.1736 229.214 55.1785 229.24 55.1783 229.266V230.274H58.165V229.266C58.1648 229.24 58.1698 229.214 58.1798 229.189C58.1898 229.165 58.2044 229.143 58.223 229.124C58.2416 229.106 58.2637 229.091 58.288 229.081C58.3124 229.071 58.3384 229.066 58.3647 229.066H63.1385C63.1647 229.066 63.1908 229.071 63.2151 229.081C63.2394 229.091 63.2614 229.106 63.28 229.124C63.2986 229.143 63.3133 229.165 63.3233 229.189C63.3333 229.214 63.3383 229.24 63.3381 229.266V230.274H66.3205V229.266C66.3203 229.24 66.3254 229.214 66.3353 229.189C66.3453 229.165 66.36 229.143 66.3785 229.124C66.3971 229.106 66.4192 229.091 66.4436 229.081C66.4679 229.071 66.4939 229.066 66.5202 229.066H103.916C103.942 229.066 103.968 229.071 103.993 229.081C104.017 229.091 104.039 229.106 104.058 229.124C104.076 229.143 104.091 229.165 104.101 229.189C104.111 229.214 104.116 229.24 104.116 229.266V230.274H107.102V229.266C107.102 229.24 107.107 229.214 107.117 229.189C107.127 229.165 107.142 229.143 107.16 229.124C107.179 229.106 107.201 229.091 107.225 229.081C107.25 229.071 107.276 229.066 107.302 229.066H112.076C112.128 229.067 112.178 229.088 112.216 229.126C112.253 229.163 112.274 229.213 112.274 229.266V230.274H115.256V229.266C115.256 229.24 115.261 229.214 115.271 229.189C115.281 229.165 115.296 229.143 115.314 229.124C115.333 229.106 115.355 229.091 115.379 229.081C115.404 229.071 115.43 229.066 115.456 229.066H120.23C120.256 229.066 120.282 229.071 120.306 229.081C120.331 229.091 120.353 229.106 120.371 229.124C120.39 229.143 120.405 229.165 120.415 229.189C120.425 229.214 120.43 229.24 120.429 229.266V230.274H123.412V229.266C123.412 229.24 123.417 229.214 123.427 229.189C123.437 229.165 123.451 229.143 123.47 229.124C123.488 229.106 123.511 229.091 123.535 229.081C123.559 229.071 123.585 229.066 123.611 229.066H128.385C128.412 229.066 128.438 229.071 128.462 229.081C128.486 229.091 128.508 229.106 128.527 229.124C128.545 229.143 128.56 229.165 128.57 229.189C128.58 229.214 128.585 229.24 128.585 229.266V230.274H131.571V229.266C131.571 229.24 131.576 229.214 131.586 229.189C131.596 229.165 131.611 229.143 131.63 229.124C131.648 229.106 131.67 229.091 131.695 229.081C131.719 229.071 131.745 229.066 131.771 229.066H136.545C136.597 229.067 136.647 229.088 136.684 229.126C136.72 229.163 136.741 229.214 136.74 229.266V230.274H139.727V229.266C139.727 229.24 139.732 229.214 139.742 229.189C139.752 229.165 139.767 229.143 139.785 229.124C139.804 229.106 139.826 229.091 139.85 229.081C139.874 229.071 139.9 229.066 139.927 229.066H144.7C144.727 229.066 144.753 229.071 144.777 229.081C144.801 229.091 144.824 229.106 144.842 229.124C144.861 229.143 144.875 229.165 144.885 229.189C144.895 229.214 144.9 229.24 144.9 229.266V230.274H147.883V229.266C147.882 229.24 147.887 229.214 147.897 229.189C147.907 229.165 147.922 229.143 147.941 229.124C147.959 229.106 147.981 229.091 148.006 229.081C148.03 229.071 148.056 229.066 148.082 229.066H152.856C152.882 229.066 152.908 229.071 152.933 229.081C152.957 229.091 152.979 229.106 152.998 229.124C153.016 229.143 153.031 229.165 153.041 229.189C153.051 229.214 153.056 229.24 153.056 229.266V230.274H166.979C167.606 230.275 168.227 230.399 168.805 230.639C169.384 230.88 169.91 231.233 170.353 231.677C170.796 232.121 171.147 232.649 171.386 233.229C171.625 233.809 171.748 234.431 171.747 235.058Z" fill="#2F2E41"/>
<path d="M158.965 144.069H99.797V142.848H72.968V144.069H13.5575C12.4962 144.069 11.4784 144.491 10.728 145.242C9.97751 145.994 9.55585 147.013 9.55585 148.076V229.203C9.55585 230.266 9.97751 231.285 10.728 232.036C11.4784 232.788 12.4962 233.21 13.5575 233.21H158.963C160.025 233.21 161.042 232.788 161.793 232.036C162.543 231.285 162.965 230.266 162.965 229.203V148.077C162.965 147.551 162.862 147.03 162.661 146.544C162.46 146.057 162.165 145.615 161.794 145.243C161.422 144.871 160.981 144.576 160.496 144.374C160.01 144.173 159.49 144.069 158.965 144.069Z" fill="#2F2E41"/>
<path d="M86.3777 181.291C91.2859 181.291 95.2648 177.307 95.2648 172.392C95.2648 167.478 91.2859 163.494 86.3777 163.494C81.4694 163.494 77.4905 167.478 77.4905 172.392C77.4905 177.307 81.4694 181.291 86.3777 181.291Z" stroke="#D0CDE1" stroke-width="2" stroke-miterlimit="10"/>
<path d="M83.5349 184.494C88.4431 184.494 92.422 180.51 92.422 175.595C92.422 170.681 88.4431 166.697 83.5349 166.697C78.6266 166.697 74.6477 170.681 74.6477 175.595C74.6477 180.51 78.6266 184.494 83.5349 184.494Z" fill="#D0CDE1"/>
</g>
<defs>
<clipPath id="clip0_5_3">
<rect width="182" height="242" fill="white"/>
</clipPath>
</defs>
</svg>
